# xmcd
#
# Track frame offsets:
#  150
#  13800
#  26262
#  38769
#  51154
#  81548
#  94517
#  106277
#  119474
#  130320
#  139355
#  149966
#
# Disc length: 2144 seconds
#
# Revision: 0
# Processed by: cddbd v1.5.1PL2 Copyright (c) Steve Scherf et al.
# Submitted via: AltoMP3_Maker 3.0
#
DISCID=ae085e0c
DTITLE=The Staple Singers - Uncloudy Day
DYEAR=1900
DGENRE=
TTITLE0=Uncloudy Day
TTITLE1=Let me Ride
TTITLE2=God's Wonderful Help
TTITLE3=Help Me Jesus
TTITLE4=I'm Coming Home
TTITLE5=If I Could Hear My Mother Pray
TTITLE6=Low is the Way
TTITLE7=If I Had a Dream
TTITLE8=On My Way to Heaven
TTITLE9=Going Away
TTITLE10=I'm Leaving
TTITLE11=I Know I Got Religion
EXTD=
EXTT0=
EXTT1=
EXTT2=
EXTT3=
EXTT4=
EXTT5=
EXTT6=
EXTT7=
EXTT8=
EXTT9=
EXTT10=
EXTT11=
PLAYORDER=
